<?xml version="1.0" encoding="UTF-8" standalone="no"?>
<!DOCTYPE svg PUBLIC "-//W3C//DTD SVG 1.1//EN"
 "http://www.w3.org/Graphics/SVG/1.1/DTD/svg11.dtd">
<!-- Generated by graphviz version 12.2.1 (0)
 -->
<!-- Title: largeRelationshipsDiagram Pages: 1 -->
<svg width="653pt" height="1228pt"
 viewBox="0.00 0.00 652.50 1227.50" xmlns="http://www.w3.org/2000/svg" xmlns:xlink="http://www.w3.org/1999/xlink">
<g id="graph0" class="graph" transform="scale(1 1) rotate(0) translate(4 1223.5)">
<title>largeRelationshipsDiagram</title>
<polygon fill="#ffffff" stroke="none" points="-4,4 -4,-1223.5 648.5,-1223.5 648.5,4 -4,4"/>
<text text-anchor="middle" x="79.25" y="-7.05" font-family="Helvetica,sans-Serif" font-size="11.00">Generated by SchemaSpy</text>
<!-- l1_fuel_block_submission -->
<g id="node1" class="node">
<title>l1_fuel_block_submission</title>
<g id="a_node1"><a xlink:href="tables/l1_fuel_block_submission.html" xlink:title="l1_fuel_block_submission" target="_top">
<polygon fill="#ffffff" stroke="none" points="150.75,-126.5 150.75,-257.5 345.5,-257.5 345.5,-126.5 150.75,-126.5"/>
<polygon fill="#f5f5f5" stroke="none" points="150.75,-234 150.75,-257.5 345.5,-257.5 345.5,-234 150.75,-234"/>
<polygon fill="none" stroke="black" points="150.75,-234 150.75,-257.5 345.5,-257.5 345.5,-234 150.75,-234"/>
<text text-anchor="start" x="151.62" y="-243.05" font-family="Helvetica,sans-Serif" font-weight="bold" font-size="11.00">l1_fuel_block_submission</text>
<text text-anchor="start" x="303.75" y="-242.05" font-family="Helvetica,sans-Serif" font-size="11.00">[table]</text>
<polygon fill="none" stroke="black" points="150.75,-212 150.75,-234 345.5,-234 345.5,-212 150.75,-212"/>
<image xlink:href="/tmp/tmp.8yJneai2e8/images/primaryKeys.png" width="11px" height="12px" preserveAspectRatio="xMinYMin meet" x="155.75" y="-229"/>
<text text-anchor="start" x="183.62" y="-218.55" font-family="Helvetica,sans-Serif" font-size="11.00">id</text>
<polygon fill="#ffffff" stroke="none" points="150.75,-190 150.75,-212 345.5,-212 345.5,-190 150.75,-190"/>
<polygon fill="none" stroke="black" points="150.75,-190 150.75,-212 345.5,-212 345.5,-190 150.75,-190"/>
<text text-anchor="start" x="183.62" y="-196.55" font-family="Helvetica,sans-Serif" font-size="11.00">fuel_block_hash</text>
<polygon fill="#ffffff" stroke="none" points="150.75,-168 150.75,-190 345.5,-190 345.5,-168 150.75,-168"/>
<polygon fill="none" stroke="black" points="150.75,-168 150.75,-190 345.5,-190 345.5,-168 150.75,-168"/>
<text text-anchor="start" x="183.62" y="-174.55" font-family="Helvetica,sans-Serif" font-size="11.00">fuel_block_height</text>
<polygon fill="none" stroke="black" points="150.75,-146 150.75,-168 345.5,-168 345.5,-146 150.75,-146"/>
<text text-anchor="start" x="183.62" y="-152.55" font-family="Helvetica,sans-Serif" font-size="11.00">completed</text>
<polygon fill="#ffffff" stroke="none" points="150.75,-126.5 150.75,-146 211.67,-146 211.67,-126.5 150.75,-126.5"/>
<polygon fill="none" stroke="black" points="150.75,-126.5 150.75,-146 211.67,-146 211.67,-126.5 150.75,-126.5"/>
<text text-anchor="start" x="153.75" y="-132.55" font-family="Helvetica,sans-Serif" font-size="11.00"> &#160;</text>
<polygon fill="#ffffff" stroke="none" points="211.67,-126.5 211.67,-146 272.58,-146 272.58,-126.5 211.67,-126.5"/>
<polygon fill="none" stroke="black" points="211.67,-126.5 211.67,-146 272.58,-146 272.58,-126.5 211.67,-126.5"/>
<text text-anchor="start" x="262.08" y="-132.55" font-family="Helvetica,sans-Serif" font-size="11.00"> &#160;</text>
<polygon fill="#ffffff" stroke="none" points="272.58,-126.5 272.58,-146 345.5,-146 345.5,-126.5 272.58,-126.5"/>
<polygon fill="none" stroke="black" points="272.58,-126.5 272.58,-146 345.5,-146 345.5,-126.5 272.58,-126.5"/>
<text text-anchor="start" x="323" y="-132.55" font-family="Helvetica,sans-Serif" font-size="11.00">1 &gt;</text>
</a>
</g>
</g>
<!-- bundles -->
<g id="node2" class="node">
<title>bundles</title>
<g id="a_node2"><a xlink:href="tables/bundles.html" xlink:title="bundles" target="_top">
<polygon fill="#ffffff" stroke="none" points="8,-365.5 8,-474.5 101.75,-474.5 101.75,-365.5 8,-365.5"/>
<polygon fill="#f5f5f5" stroke="none" points="8,-451 8,-474.5 101.75,-474.5 101.75,-451 8,-451"/>
<polygon fill="none" stroke="black" points="8,-451 8,-474.5 101.75,-474.5 101.75,-451 8,-451"/>
<text text-anchor="start" x="10.5" y="-460.05" font-family="Helvetica,sans-Serif" font-weight="bold" font-size="11.00">bundles</text>
<text text-anchor="start" x="60" y="-459.05" font-family="Helvetica,sans-Serif" font-size="11.00">[table]</text>
<polygon fill="none" stroke="black" points="8,-429 8,-451 101.75,-451 101.75,-429 8,-429"/>
<image xlink:href="/tmp/tmp.8yJneai2e8/images/primaryKeys.png" width="11px" height="12px" preserveAspectRatio="xMinYMin meet" x="13" y="-446"/>
<text text-anchor="start" x="28.38" y="-435.55" font-family="Helvetica,sans-Serif" font-size="11.00">id</text>
<polygon fill="#ffffff" stroke="none" points="8,-407 8,-429 101.75,-429 101.75,-407 8,-407"/>
<polygon fill="none" stroke="black" points="8,-407 8,-429 101.75,-429 101.75,-407 8,-407"/>
<text text-anchor="start" x="28.38" y="-413.55" font-family="Helvetica,sans-Serif" font-size="11.00">start_height</text>
<polygon fill="#ffffff" stroke="none" points="8,-385 8,-407 101.75,-407 101.75,-385 8,-385"/>
<polygon fill="none" stroke="black" points="8,-385 8,-407 101.75,-407 101.75,-385 8,-385"/>
<text text-anchor="start" x="28.38" y="-391.55" font-family="Helvetica,sans-Serif" font-size="11.00">end_height</text>
<polygon fill="#ffffff" stroke="none" points="8,-365.5 8,-385 35.25,-385 35.25,-365.5 8,-365.5"/>
<polygon fill="none" stroke="black" points="8,-365.5 8,-385 35.25,-385 35.25,-365.5 8,-365.5"/>
<text text-anchor="start" x="11" y="-371.55" font-family="Helvetica,sans-Serif" font-size="11.00"> &#160;</text>
<polygon fill="#ffffff" stroke="none" points="35.25,-365.5 35.25,-385 62.5,-385 62.5,-365.5 35.25,-365.5"/>
<polygon fill="none" stroke="black" points="35.25,-365.5 35.25,-385 62.5,-385 62.5,-365.5 35.25,-365.5"/>
<text text-anchor="start" x="52" y="-371.55" font-family="Helvetica,sans-Serif" font-size="11.00"> &#160;</text>
<polygon fill="#ffffff" stroke="none" points="62.5,-365.5 62.5,-385 101.75,-385 101.75,-365.5 62.5,-365.5"/>
<polygon fill="none" stroke="black" points="62.5,-365.5 62.5,-385 101.75,-385 101.75,-365.5 62.5,-365.5"/>
<text text-anchor="start" x="79.25" y="-371.55" font-family="Helvetica,sans-Serif" font-size="11.00">2 &gt;</text>
</a>
</g>
</g>
<!-- l1_blob_transaction -->
<g id="node3" class="node">
<title>l1_blob_transaction</title>
<g id="a_node3"><a xlink:href="tables/l1_blob_transaction.html" xlink:title="l1_blob_transaction" target="_top">
<polygon fill="#ffffff" stroke="none" points="166.75,-648.5 166.75,-889.5 329.5,-889.5 329.5,-648.5 166.75,-648.5"/>
<polygon fill="#f5f5f5" stroke="none" points="166.75,-866 166.75,-889.5 329.5,-889.5 329.5,-866 166.75,-866"/>
<polygon fill="none" stroke="black" points="166.75,-866 166.75,-889.5 329.5,-889.5 329.5,-866 166.75,-866"/>
<text text-anchor="start" x="168.5" y="-875.05" font-family="Helvetica,sans-Serif" font-weight="bold" font-size="11.00">l1_blob_transaction</text>
<text text-anchor="start" x="287.75" y="-874.05" font-family="Helvetica,sans-Serif" font-size="11.00">[table]</text>
<polygon fill="none" stroke="black" points="166.75,-844 166.75,-866 329.5,-866 329.5,-844 166.75,-844"/>
<image xlink:href="/tmp/tmp.8yJneai2e8/images/primaryKeys.png" width="11px" height="12px" preserveAspectRatio="xMinYMin meet" x="171.75" y="-861"/>
<text text-anchor="start" x="199.62" y="-850.55" font-family="Helvetica,sans-Serif" font-size="11.00">id</text>
<polygon fill="#ffffff" stroke="none" points="166.75,-822 166.75,-844 329.5,-844 329.5,-822 166.75,-822"/>
<polygon fill="none" stroke="black" points="166.75,-822 166.75,-844 329.5,-844 329.5,-822 166.75,-822"/>
<text text-anchor="start" x="199.62" y="-828.55" font-family="Helvetica,sans-Serif" font-size="11.00">hash</text>
<polygon fill="none" stroke="black" points="166.75,-800 166.75,-822 329.5,-822 329.5,-800 166.75,-800"/>
<text text-anchor="start" x="199.62" y="-806.55" font-family="Helvetica,sans-Serif" font-size="11.00">state</text>
<polygon fill="none" stroke="black" points="166.75,-778 166.75,-800 329.5,-800 329.5,-778 166.75,-778"/>
<text text-anchor="start" x="199.62" y="-784.55" font-family="Helvetica,sans-Serif" font-size="11.00">finalized_at</text>
<polygon fill="none" stroke="black" points="166.75,-756 166.75,-778 329.5,-778 329.5,-756 166.75,-756"/>
<text text-anchor="start" x="199.62" y="-762.55" font-family="Helvetica,sans-Serif" font-size="11.00">nonce</text>
<polygon fill="none" stroke="black" points="166.75,-734 166.75,-756 329.5,-756 329.5,-734 166.75,-734"/>
<text text-anchor="start" x="199.62" y="-740.55" font-family="Helvetica,sans-Serif" font-size="11.00">max_fee</text>
<polygon fill="none" stroke="black" points="166.75,-712 166.75,-734 329.5,-734 329.5,-712 166.75,-712"/>
<text text-anchor="start" x="199.62" y="-718.55" font-family="Helvetica,sans-Serif" font-size="11.00">priority_fee</text>
<polygon fill="none" stroke="black" points="166.75,-690 166.75,-712 329.5,-712 329.5,-690 166.75,-690"/>
<text text-anchor="start" x="199.62" y="-696.55" font-family="Helvetica,sans-Serif" font-size="11.00">blob_fee</text>
<polygon fill="none" stroke="black" points="166.75,-668 166.75,-690 329.5,-690 329.5,-668 166.75,-668"/>
<text text-anchor="start" x="199.62" y="-674.55" font-family="Helvetica,sans-Serif" font-size="11.00">created_at</text>
<polygon fill="#ffffff" stroke="none" points="166.75,-648.5 166.75,-668 217,-668 217,-648.5 166.75,-648.5"/>
<polygon fill="none" stroke="black" points="166.75,-648.5 166.75,-668 217,-668 217,-648.5 166.75,-648.5"/>
<text text-anchor="start" x="169.75" y="-654.55" font-family="Helvetica,sans-Serif" font-size="11.00"> &#160;</text>
<polygon fill="#ffffff" stroke="none" points="217,-648.5 217,-668 267.25,-668 267.25,-648.5 217,-648.5"/>
<polygon fill="none" stroke="black" points="217,-648.5 217,-668 267.25,-668 267.25,-648.5 217,-648.5"/>
<text text-anchor="start" x="256.75" y="-654.55" font-family="Helvetica,sans-Serif" font-size="11.00"> &#160;</text>
<polygon fill="#ffffff" stroke="none" points="267.25,-648.5 267.25,-668 329.5,-668 329.5,-648.5 267.25,-648.5"/>
<polygon fill="none" stroke="black" points="267.25,-648.5 267.25,-668 329.5,-668 329.5,-648.5 267.25,-648.5"/>
<text text-anchor="start" x="307" y="-654.55" font-family="Helvetica,sans-Serif" font-size="11.00">1 &gt;</text>
</a>
</g>
</g>
<!-- l1_transaction -->
<g id="node4" class="node">
<title>l1_transaction</title>
<g id="a_node4"><a xlink:href="tables/l1_transaction.html" xlink:title="l1_transaction" target="_top">
<polygon fill="#ffffff" stroke="none" points="450.12,-38.5 450.12,-279.5 580.88,-279.5 580.88,-38.5 450.12,-38.5"/>
<polygon fill="#f5f5f5" stroke="none" points="450.12,-256 450.12,-279.5 580.88,-279.5 580.88,-256 450.12,-256"/>
<polygon fill="none" stroke="black" points="450.12,-256 450.12,-279.5 580.88,-279.5 580.88,-256 450.12,-256"/>
<text text-anchor="start" x="451.62" y="-265.05" font-family="Helvetica,sans-Serif" font-weight="bold" font-size="11.00">l1_transaction</text>
<text text-anchor="start" x="539.12" y="-264.05" font-family="Helvetica,sans-Serif" font-size="11.00">[table]</text>
<polygon fill="none" stroke="black" points="450.12,-234 450.12,-256 580.88,-256 580.88,-234 450.12,-234"/>
<image xlink:href="/tmp/tmp.8yJneai2e8/images/primaryKeys.png" width="11px" height="12px" preserveAspectRatio="xMinYMin meet" x="455.125" y="-251"/>
<text text-anchor="start" x="483" y="-240.55" font-family="Helvetica,sans-Serif" font-size="11.00">id</text>
<polygon fill="none" stroke="black" points="450.12,-212 450.12,-234 580.88,-234 580.88,-212 450.12,-212"/>
<image xlink:href="/tmp/tmp.8yJneai2e8/images/foreignKeys.png" width="11px" height="12px" preserveAspectRatio="xMinYMin meet" x="455.125" y="-229"/>
<text text-anchor="start" x="483" y="-218.55" font-family="Helvetica,sans-Serif" font-size="11.00">submission_id</text>
<polygon fill="#ffffff" stroke="none" points="450.12,-190 450.12,-212 580.88,-212 580.88,-190 450.12,-190"/>
<polygon fill="none" stroke="black" points="450.12,-190 450.12,-212 580.88,-212 580.88,-190 450.12,-190"/>
<text text-anchor="start" x="483" y="-196.55" font-family="Helvetica,sans-Serif" font-size="11.00">hash</text>
<polygon fill="none" stroke="black" points="450.12,-168 450.12,-190 580.88,-190 580.88,-168 450.12,-168"/>
<text text-anchor="start" x="483" y="-174.55" font-family="Helvetica,sans-Serif" font-size="11.00">nonce</text>
<polygon fill="none" stroke="black" points="450.12,-146 450.12,-168 580.88,-168 580.88,-146 450.12,-146"/>
<text text-anchor="start" x="483" y="-152.55" font-family="Helvetica,sans-Serif" font-size="11.00">max_fee</text>
<polygon fill="none" stroke="black" points="450.12,-124 450.12,-146 580.88,-146 580.88,-124 450.12,-124"/>
<text text-anchor="start" x="483" y="-130.55" font-family="Helvetica,sans-Serif" font-size="11.00">priority_fee</text>
<polygon fill="none" stroke="black" points="450.12,-102 450.12,-124 580.88,-124 580.88,-102 450.12,-102"/>
<text text-anchor="start" x="483" y="-108.55" font-family="Helvetica,sans-Serif" font-size="11.00">created_at</text>
<polygon fill="none" stroke="black" points="450.12,-80 450.12,-102 580.88,-102 580.88,-80 450.12,-80"/>
<text text-anchor="start" x="483" y="-86.55" font-family="Helvetica,sans-Serif" font-size="11.00">finalized_at</text>
<polygon fill="none" stroke="black" points="450.12,-58 450.12,-80 580.88,-80 580.88,-58 450.12,-58"/>
<text text-anchor="start" x="483" y="-64.55" font-family="Helvetica,sans-Serif" font-size="11.00">state</text>
<polygon fill="#ffffff" stroke="none" points="450.12,-38.5 450.12,-58 501.71,-58 501.71,-38.5 450.12,-38.5"/>
<polygon fill="none" stroke="black" points="450.12,-38.5 450.12,-58 501.71,-58 501.71,-38.5 450.12,-38.5"/>
<text text-anchor="start" x="453.12" y="-44.55" font-family="Helvetica,sans-Serif" font-size="11.00">&lt; 1</text>
<polygon fill="#ffffff" stroke="none" points="501.71,-38.5 501.71,-58 541.29,-58 541.29,-38.5 501.71,-38.5"/>
<polygon fill="none" stroke="black" points="501.71,-38.5 501.71,-58 541.29,-58 541.29,-38.5 501.71,-38.5"/>
<text text-anchor="start" x="530.79" y="-44.55" font-family="Helvetica,sans-Serif" font-size="11.00"> &#160;</text>
<polygon fill="#ffffff" stroke="none" points="541.29,-38.5 541.29,-58 580.88,-58 580.88,-38.5 541.29,-38.5"/>
<polygon fill="none" stroke="black" points="541.29,-38.5 541.29,-58 580.88,-58 580.88,-38.5 541.29,-38.5"/>
<text text-anchor="start" x="570.38" y="-44.55" font-family="Helvetica,sans-Serif" font-size="11.00"> &#160;</text>
</a>
</g>
</g>
<!-- l1_transaction&#45;&gt;l1_fuel_block_submission -->
<g id="edge3" class="edge">
<title>l1_transaction:w&#45;&gt;l1_fuel_block_submission:e</title>
<path fill="none" stroke="black" d="M433.49,-223C400.13,-223 386.41,-223 346.5,-223"/>
<polygon fill="black" stroke="black" points="440.79,-223 448.79,-226.6 445.12,-223 448.46,-223 448.46,-223 448.46,-223 445.12,-223 448.79,-219.4 440.79,-223"/>
<ellipse fill="none" stroke="black" cx="435.87" cy="-223" rx="3.2" ry="3.2"/>
</g>
<!-- l1_transaction_fragments -->
<g id="node5" class="node">
<title>l1_transaction_fragments</title>
<g id="a_node5"><a xlink:href="tables/l1_transaction_fragments.html" xlink:title="l1_transaction_fragments" target="_top">
<polygon fill="#ffffff" stroke="none" points="416.62,-682.5 416.62,-769.5 614.38,-769.5 614.38,-682.5 416.62,-682.5"/>
<polygon fill="#f5f5f5" stroke="none" points="416.62,-746 416.62,-769.5 614.38,-769.5 614.38,-746 416.62,-746"/>
<polygon fill="none" stroke="black" points="416.62,-746 416.62,-769.5 614.38,-769.5 614.38,-746 416.62,-746"/>
<text text-anchor="start" x="417.5" y="-755.05" font-family="Helvetica,sans-Serif" font-weight="bold" font-size="11.00">l1_transaction_fragments</text>
<text text-anchor="start" x="572.62" y="-754.05" font-family="Helvetica,sans-Serif" font-size="11.00">[table]</text>
<polygon fill="none" stroke="black" points="416.62,-724 416.62,-746 614.38,-746 614.38,-724 416.62,-724"/>
<image xlink:href="/tmp/tmp.8yJneai2e8/images/primaryKeys.png" width="11px" height="12px" preserveAspectRatio="xMinYMin meet" x="421.625" y="-741"/>
<text text-anchor="start" x="449.5" y="-730.55" font-family="Helvetica,sans-Serif" font-size="11.00">transaction_id</text>
<polygon fill="none" stroke="black" points="416.62,-702 416.62,-724 614.38,-724 614.38,-702 416.62,-702"/>
<image xlink:href="/tmp/tmp.8yJneai2e8/images/primaryKeys.png" width="11px" height="12px" preserveAspectRatio="xMinYMin meet" x="421.625" y="-719"/>
<text text-anchor="start" x="449.5" y="-708.55" font-family="Helvetica,sans-Serif" font-size="11.00">fragment_id</text>
<polygon fill="#ffffff" stroke="none" points="416.62,-682.5 416.62,-702 490.54,-702 490.54,-682.5 416.62,-682.5"/>
<polygon fill="none" stroke="black" points="416.62,-682.5 416.62,-702 490.54,-702 490.54,-682.5 416.62,-682.5"/>
<text text-anchor="start" x="419.62" y="-688.55" font-family="Helvetica,sans-Serif" font-size="11.00">&lt; 2</text>
<polygon fill="#ffffff" stroke="none" points="490.54,-682.5 490.54,-702 552.46,-702 552.46,-682.5 490.54,-682.5"/>
<polygon fill="none" stroke="black" points="490.54,-682.5 490.54,-702 552.46,-702 552.46,-682.5 490.54,-682.5"/>
<text text-anchor="start" x="541.96" y="-688.55" font-family="Helvetica,sans-Serif" font-size="11.00"> &#160;</text>
<polygon fill="#ffffff" stroke="none" points="552.46,-682.5 552.46,-702 614.38,-702 614.38,-682.5 552.46,-682.5"/>
<polygon fill="none" stroke="black" points="552.46,-682.5 552.46,-702 614.38,-702 614.38,-682.5 552.46,-682.5"/>
<text text-anchor="start" x="603.88" y="-688.55" font-family="Helvetica,sans-Serif" font-size="11.00"> &#160;</text>
</a>
</g>
</g>
<!-- l1_transaction_fragments&#45;&gt;l1_blob_transaction -->
<g id="edge5" class="edge">
<title>l1_transaction_fragments:w&#45;&gt;l1_blob_transaction:e</title>
<path fill="none" stroke="black" d="M400.25,-737.85C357.68,-756.02 389.89,-855 330.5,-855"/>
<polygon fill="black" stroke="black" points="407.43,-736.52 415.95,-738.6 411.69,-735.73 414.97,-735.12 414.97,-735.12 414.97,-735.12 411.69,-735.73 414.64,-731.52 407.43,-736.52"/>
<ellipse fill="none" stroke="black" cx="402.59" cy="-737.41" rx="3.2" ry="3.2"/>
</g>
<!-- l1_fragments -->
<g id="node6" class="node">
<title>l1_fragments</title>
<g id="a_node6"><a xlink:href="tables/l1_fragments.html" xlink:title="l1_fragments" target="_top">
<polygon fill="#ffffff" stroke="none" points="186.25,-452.5 186.25,-627.5 310,-627.5 310,-452.5 186.25,-452.5"/>
<polygon fill="#f5f5f5" stroke="none" points="186.25,-604 186.25,-627.5 310,-627.5 310,-604 186.25,-604"/>
<polygon fill="none" stroke="black" points="186.25,-604 186.25,-627.5 310,-627.5 310,-604 186.25,-604"/>
<text text-anchor="start" x="188" y="-613.05" font-family="Helvetica,sans-Serif" font-weight="bold" font-size="11.00">l1_fragments</text>
<text text-anchor="start" x="268.25" y="-612.05" font-family="Helvetica,sans-Serif" font-size="11.00">[table]</text>
<polygon fill="none" stroke="black" points="186.25,-582 186.25,-604 310,-604 310,-582 186.25,-582"/>
<image xlink:href="/tmp/tmp.8yJneai2e8/images/primaryKeys.png" width="11px" height="12px" preserveAspectRatio="xMinYMin meet" x="191.25" y="-599"/>
<text text-anchor="start" x="217.12" y="-588.55" font-family="Helvetica,sans-Serif" font-size="11.00">id</text>
<polygon fill="none" stroke="black" points="186.25,-560 186.25,-582 310,-582 310,-560 186.25,-560"/>
<text text-anchor="start" x="217.12" y="-566.55" font-family="Helvetica,sans-Serif" font-size="11.00">idx</text>
<polygon fill="none" stroke="black" points="186.25,-538 186.25,-560 310,-560 310,-538 186.25,-538"/>
<text text-anchor="start" x="217.12" y="-544.55" font-family="Helvetica,sans-Serif" font-size="11.00">data</text>
<polygon fill="none" stroke="black" points="186.25,-516 186.25,-538 310,-538 310,-516 186.25,-516"/>
<text text-anchor="start" x="217.12" y="-522.55" font-family="Helvetica,sans-Serif" font-size="11.00">total_bytes</text>
<polygon fill="none" stroke="black" points="186.25,-494 186.25,-516 310,-516 310,-494 186.25,-494"/>
<text text-anchor="start" x="217.12" y="-500.55" font-family="Helvetica,sans-Serif" font-size="11.00">unused_bytes</text>
<polygon fill="none" stroke="black" points="186.25,-472 186.25,-494 310,-494 310,-472 186.25,-472"/>
<image xlink:href="/tmp/tmp.8yJneai2e8/images/foreignKeys.png" width="11px" height="12px" preserveAspectRatio="xMinYMin meet" x="191.25" y="-489"/>
<text text-anchor="start" x="217.12" y="-478.55" font-family="Helvetica,sans-Serif" font-size="11.00">bundle_id</text>
<polygon fill="#ffffff" stroke="none" points="186.25,-452.5 186.25,-472 231.5,-472 231.5,-452.5 186.25,-452.5"/>
<polygon fill="none" stroke="black" points="186.25,-452.5 186.25,-472 231.5,-472 231.5,-452.5 186.25,-452.5"/>
<text text-anchor="start" x="189.25" y="-458.55" font-family="Helvetica,sans-Serif" font-size="11.00">&lt; 1</text>
<polygon fill="#ffffff" stroke="none" points="231.5,-452.5 231.5,-472 264.75,-472 264.75,-452.5 231.5,-452.5"/>
<polygon fill="none" stroke="black" points="231.5,-452.5 231.5,-472 264.75,-472 264.75,-452.5 231.5,-452.5"/>
<text text-anchor="start" x="254.25" y="-458.55" font-family="Helvetica,sans-Serif" font-size="11.00"> &#160;</text>
<polygon fill="#ffffff" stroke="none" points="264.75,-452.5 264.75,-472 310,-472 310,-452.5 264.75,-452.5"/>
<polygon fill="none" stroke="black" points="264.75,-452.5 264.75,-472 310,-472 310,-452.5 264.75,-452.5"/>
<text text-anchor="start" x="287.5" y="-458.55" font-family="Helvetica,sans-Serif" font-size="11.00">1 &gt;</text>
</a>
</g>
</g>
<!-- l1_transaction_fragments&#45;&gt;l1_fragments -->
<g id="edge4" class="edge">
<title>l1_transaction_fragments:w&#45;&gt;l1_fragments:e</title>
<path fill="none" stroke="black" d="M400.27,-710.71C350.2,-694.12 375.95,-593 311,-593"/>
<polygon fill="black" stroke="black" points="407.38,-711.77 414.76,-716.51 411.67,-712.41 414.96,-712.9 414.96,-712.9 414.96,-712.9 411.67,-712.41 415.83,-709.39 407.38,-711.77"/>
<ellipse fill="none" stroke="black" cx="402.52" cy="-711.05" rx="3.2" ry="3.2"/>
</g>
<!-- l1_fragments&#45;&gt;bundles -->
<g id="edge2" class="edge">
<title>l1_fragments:w&#45;&gt;bundles:e</title>
<path fill="none" stroke="black" d="M169.67,-480.56C143.09,-471.47 138.12,-440 102.75,-440"/>
<polygon fill="black" stroke="black" points="177.02,-481.71 184.36,-486.51 181.3,-482.38 184.59,-482.9 184.59,-482.9 184.59,-482.9 181.3,-482.38 185.48,-479.39 177.02,-481.71"/>
<ellipse fill="none" stroke="black" cx="172.16" cy="-480.95" rx="3.2" ry="3.2"/>
</g>
<!-- bundle_cost -->
<g id="node7" class="node">
<title>bundle_cost</title>
<g id="a_node7"><a xlink:href="tables/bundle_cost.html" xlink:title="bundle_cost" target="_top">
<polygon fill="#ffffff" stroke="none" points="189.25,-278.5 189.25,-431.5 307,-431.5 307,-278.5 189.25,-278.5"/>
<polygon fill="#f5f5f5" stroke="none" points="189.25,-408 189.25,-431.5 307,-431.5 307,-408 189.25,-408"/>
<polygon fill="none" stroke="black" points="189.25,-408 189.25,-431.5 307,-431.5 307,-408 189.25,-408"/>
<text text-anchor="start" x="191.38" y="-417.05" font-family="Helvetica,sans-Serif" font-weight="bold" font-size="11.00">bundle_cost</text>
<text text-anchor="start" x="265.25" y="-416.05" font-family="Helvetica,sans-Serif" font-size="11.00">[table]</text>
<polygon fill="none" stroke="black" points="189.25,-386 189.25,-408 307,-408 307,-386 189.25,-386"/>
<image xlink:href="/tmp/tmp.8yJneai2e8/images/primaryKeys.png" width="11px" height="12px" preserveAspectRatio="xMinYMin meet" x="194.25" y="-403"/>
<text text-anchor="start" x="210.12" y="-392.55" font-family="Helvetica,sans-Serif" font-size="11.00">bundle_id</text>
<polygon fill="none" stroke="black" points="189.25,-364 189.25,-386 307,-386 307,-364 189.25,-364"/>
<text text-anchor="start" x="210.12" y="-370.55" font-family="Helvetica,sans-Serif" font-size="11.00">da_block_height</text>
<polygon fill="none" stroke="black" points="189.25,-342 189.25,-364 307,-364 307,-342 189.25,-342"/>
<text text-anchor="start" x="210.12" y="-348.55" font-family="Helvetica,sans-Serif" font-size="11.00">cost</text>
<polygon fill="none" stroke="black" points="189.25,-320 189.25,-342 307,-342 307,-320 189.25,-320"/>
<text text-anchor="start" x="210.12" y="-326.55" font-family="Helvetica,sans-Serif" font-size="11.00">size</text>
<polygon fill="none" stroke="black" points="189.25,-298 189.25,-320 307,-320 307,-298 189.25,-298"/>
<text text-anchor="start" x="210.12" y="-304.55" font-family="Helvetica,sans-Serif" font-size="11.00">is_finalized</text>
<polygon fill="#ffffff" stroke="none" points="189.25,-278.5 189.25,-298 236.5,-298 236.5,-278.5 189.25,-278.5"/>
<polygon fill="none" stroke="black" points="189.25,-278.5 189.25,-298 236.5,-298 236.5,-278.5 189.25,-278.5"/>
<text text-anchor="start" x="192.25" y="-284.55" font-family="Helvetica,sans-Serif" font-size="11.00">&lt; 1</text>
<polygon fill="#ffffff" stroke="none" points="236.5,-278.5 236.5,-298 271.75,-298 271.75,-278.5 236.5,-278.5"/>
<polygon fill="none" stroke="black" points="236.5,-278.5 236.5,-298 271.75,-298 271.75,-278.5 236.5,-278.5"/>
<text text-anchor="start" x="261.25" y="-284.55" font-family="Helvetica,sans-Serif" font-size="11.00"> &#160;</text>
<polygon fill="#ffffff" stroke="none" points="271.75,-278.5 271.75,-298 307,-298 307,-278.5 271.75,-278.5"/>
<polygon fill="none" stroke="black" points="271.75,-278.5 271.75,-298 307,-298 307,-278.5 271.75,-278.5"/>
<text text-anchor="start" x="296.5" y="-284.55" font-family="Helvetica,sans-Serif" font-size="11.00"> &#160;</text>
</a>
</g>
</g>
<!-- bundle_cost&#45;&gt;bundles -->
<g id="edge1" class="edge">
<title>bundle_cost:w&#45;&gt;bundles:e</title>
<path fill="none" stroke="black" d="M176.91,-398.15C145.23,-404.99 141.13,-440 102.75,-440"/>
<polygon fill="black" stroke="black" points="187.05,-393.1 187.86,-401.06 186.27,-401.22 185.46,-393.26 187.05,-393.1"/>
<polyline fill="none" stroke="black" points="188.25,-397 184.27,-397.4"/>
<ellipse fill="none" stroke="black" cx="180.59" cy="-397.78" rx="3.2" ry="3.2"/>
</g>
<!-- _sqlx_migrations -->
<g id="node8" class="node">
<title>_sqlx_migrations</title>
<g id="a_node8"><a xlink:href="tables/_sqlx_migrations.html" xlink:title="_sqlx_migrations" target="_top">
<polygon fill="#ffffff" stroke="none" points="396.5,-790.5 396.5,-969.5 634.5,-969.5 634.5,-790.5 396.5,-790.5"/>
<polygon fill="#f5f5f5" stroke="none" points="398.5,-944 398.5,-967.5 632.5,-967.5 632.5,-944 398.5,-944"/>
<polygon fill="none" stroke="black" points="398.5,-944 398.5,-967.5 632.5,-967.5 632.5,-944 398.5,-944"/>
<text text-anchor="start" x="400.38" y="-953.05" font-family="Helvetica,sans-Serif" font-weight="bold" font-size="11.00">_sqlx_migrations</text>
<text text-anchor="start" x="590.75" y="-952.05" font-family="Helvetica,sans-Serif" font-size="11.00">[table]</text>
<polygon fill="none" stroke="black" points="398.5,-922 398.5,-944 518.5,-944 518.5,-922 398.5,-922"/>
<image xlink:href="/tmp/tmp.8yJneai2e8/images/primaryKeys.png" width="11px" height="12px" preserveAspectRatio="xMinYMin meet" x="403.5" y="-939"/>
<text text-anchor="start" x="418.5" y="-928.55" font-family="Helvetica,sans-Serif" font-size="11.00">version</text>
<polygon fill="none" stroke="black" points="518.5,-922 518.5,-944 632.5,-944 632.5,-922 518.5,-922"/>
<text text-anchor="start" x="521.5" y="-929.3" font-family="Helvetica,sans-Serif" font-size="11.00">int8[19]</text>
<polygon fill="none" stroke="black" points="398.5,-900 398.5,-922 518.5,-922 518.5,-900 398.5,-900"/>
<text text-anchor="start" x="418.5" y="-906.55" font-family="Helvetica,sans-Serif" font-size="11.00">description</text>
<polygon fill="none" stroke="black" points="518.5,-900 518.5,-922 632.5,-922 632.5,-900 518.5,-900"/>
<text text-anchor="start" x="521.5" y="-907.3" font-family="Helvetica,sans-Serif" font-size="11.00">text[2147483647]</text>
<polygon fill="none" stroke="black" points="398.5,-878 398.5,-900 518.5,-900 518.5,-878 398.5,-878"/>
<text text-anchor="start" x="418.5" y="-884.55" font-family="Helvetica,sans-Serif" font-size="11.00">installed_on</text>
<polygon fill="none" stroke="black" points="518.5,-878 518.5,-900 632.5,-900 632.5,-878 518.5,-878"/>
<text text-anchor="start" x="521.5" y="-885.3" font-family="Helvetica,sans-Serif" font-size="11.00">timestamptz[35,6]</text>
<polygon fill="none" stroke="black" points="398.5,-856 398.5,-878 518.5,-878 518.5,-856 398.5,-856"/>
<text text-anchor="start" x="418.5" y="-862.55" font-family="Helvetica,sans-Serif" font-size="11.00">success</text>
<polygon fill="none" stroke="black" points="518.5,-856 518.5,-878 632.5,-878 632.5,-856 518.5,-856"/>
<text text-anchor="start" x="521.5" y="-863.3" font-family="Helvetica,sans-Serif" font-size="11.00">bool[1]</text>
<polygon fill="none" stroke="black" points="398.5,-834 398.5,-856 518.5,-856 518.5,-834 398.5,-834"/>
<text text-anchor="start" x="418.5" y="-840.55" font-family="Helvetica,sans-Serif" font-size="11.00">checksum</text>
<polygon fill="none" stroke="black" points="518.5,-834 518.5,-856 632.5,-856 632.5,-834 518.5,-834"/>
<text text-anchor="start" x="521.5" y="-841.3" font-family="Helvetica,sans-Serif" font-size="11.00">bytea[2147483647]</text>
<polygon fill="none" stroke="black" points="398.5,-812 398.5,-834 518.5,-834 518.5,-812 398.5,-812"/>
<text text-anchor="start" x="418.5" y="-818.55" font-family="Helvetica,sans-Serif" font-size="11.00">execution_time</text>
<polygon fill="none" stroke="black" points="518.5,-812 518.5,-834 632.5,-834 632.5,-812 518.5,-812"/>
<text text-anchor="start" x="521.5" y="-819.3" font-family="Helvetica,sans-Serif" font-size="11.00">int8[19]</text>
<polygon fill="#ffffff" stroke="none" points="398.5,-792.5 398.5,-812 464.5,-812 464.5,-792.5 398.5,-792.5"/>
<polygon fill="none" stroke="black" points="398.5,-792.5 398.5,-812 464.5,-812 464.5,-792.5 398.5,-792.5"/>
<text text-anchor="start" x="401.5" y="-798.55" font-family="Helvetica,sans-Serif" font-size="11.00">&lt; 0</text>
<polygon fill="#ffffff" stroke="none" points="464.5,-792.5 464.5,-812 518.5,-812 518.5,-792.5 464.5,-792.5"/>
<polygon fill="none" stroke="black" points="464.5,-792.5 464.5,-812 518.5,-812 518.5,-792.5 464.5,-792.5"/>
<text text-anchor="start" x="508" y="-798.55" font-family="Helvetica,sans-Serif" font-size="11.00"> &#160;</text>
<polygon fill="#ffffff" stroke="none" points="518.5,-792.5 518.5,-812 632.5,-812 632.5,-792.5 518.5,-792.5"/>
<polygon fill="none" stroke="black" points="518.5,-792.5 518.5,-812 632.5,-812 632.5,-792.5 518.5,-792.5"/>
<text text-anchor="start" x="610" y="-798.55" font-family="Helvetica,sans-Serif" font-size="11.00">0 &gt;</text>
<polygon fill="none" stroke="black" stroke-width="2" points="397.5,-791.5 397.5,-968.5 633.5,-968.5 633.5,-791.5 397.5,-791.5"/>
</a>
</g>
</g>
<!-- fuel_blocks -->
<g id="node9" class="node">
<title>fuel_blocks</title>
<g id="a_node9"><a xlink:href="tables/fuel_blocks.html" xlink:title="fuel_blocks" target="_top">
<polygon fill="#ffffff" stroke="none" points="413,-990.5 413,-1081.5 618,-1081.5 618,-990.5 413,-990.5"/>
<polygon fill="#f5f5f5" stroke="none" points="415,-1056 415,-1079.5 616,-1079.5 616,-1056 415,-1056"/>
<polygon fill="none" stroke="black" points="415,-1056 415,-1079.5 616,-1079.5 616,-1056 415,-1056"/>
<text text-anchor="start" x="416.88" y="-1065.05" font-family="Helvetica,sans-Serif" font-weight="bold" font-size="11.00">fuel_blocks</text>
<text text-anchor="start" x="574.25" y="-1064.05" font-family="Helvetica,sans-Serif" font-size="11.00">[table]</text>
<polygon fill="none" stroke="black" points="415,-1034 415,-1056 502,-1056 502,-1034 415,-1034"/>
<image xlink:href="/tmp/tmp.8yJneai2e8/images/primaryKeys.png" width="11px" height="12px" preserveAspectRatio="xMinYMin meet" x="420" y="-1051"/>
<text text-anchor="start" x="435" y="-1040.55" font-family="Helvetica,sans-Serif" font-size="11.00">height</text>
<polygon fill="none" stroke="black" points="502,-1034 502,-1056 616,-1056 616,-1034 502,-1034"/>
<text text-anchor="start" x="505" y="-1041.3" font-family="Helvetica,sans-Serif" font-size="11.00">int8[19]</text>
<polygon fill="none" stroke="black" points="415,-1012 415,-1034 502,-1034 502,-1012 415,-1012"/>
<text text-anchor="start" x="435" y="-1018.55" font-family="Helvetica,sans-Serif" font-size="11.00">data</text>
<polygon fill="none" stroke="black" points="502,-1012 502,-1034 616,-1034 616,-1012 502,-1012"/>
<text text-anchor="start" x="505" y="-1019.3" font-family="Helvetica,sans-Serif" font-size="11.00">bytea[2147483647]</text>
<polygon fill="#ffffff" stroke="none" points="415,-992.5 415,-1012 464.5,-1012 464.5,-992.5 415,-992.5"/>
<polygon fill="none" stroke="black" points="415,-992.5 415,-1012 464.5,-1012 464.5,-992.5 415,-992.5"/>
<text text-anchor="start" x="418" y="-998.55" font-family="Helvetica,sans-Serif" font-size="11.00">&lt; 0</text>
<polygon fill="#ffffff" stroke="none" points="464.5,-992.5 464.5,-1012 502,-1012 502,-992.5 464.5,-992.5"/>
<polygon fill="none" stroke="black" points="464.5,-992.5 464.5,-1012 502,-1012 502,-992.5 464.5,-992.5"/>
<text text-anchor="start" x="491.5" y="-998.55" font-family="Helvetica,sans-Serif" font-size="11.00"> &#160;</text>
<polygon fill="#ffffff" stroke="none" points="502,-992.5 502,-1012 616,-1012 616,-992.5 502,-992.5"/>
<polygon fill="none" stroke="black" points="502,-992.5 502,-1012 616,-1012 616,-992.5 502,-992.5"/>
<text text-anchor="start" x="593.5" y="-998.55" font-family="Helvetica,sans-Serif" font-size="11.00">0 &gt;</text>
<polygon fill="none" stroke="black" stroke-width="2" points="414,-991.5 414,-1080.5 617,-1080.5 617,-991.5 414,-991.5"/>
</a>
</g>
</g>
<!-- l1_submissions -->
<g id="node10" class="node">
<title>l1_submissions</title>
<g id="a_node10"><a xlink:href="tables/l1_submissions.html" xlink:title="l1_submissions" target="_top">
<polygon fill="#ffffff" stroke="none" points="394.5,-1102.5 394.5,-1215.5 636.5,-1215.5 636.5,-1102.5 394.5,-1102.5"/>
<polygon fill="#f5f5f5" stroke="none" points="396.5,-1190 396.5,-1213.5 634.5,-1213.5 634.5,-1190 396.5,-1190"/>
<polygon fill="none" stroke="black" points="396.5,-1190 396.5,-1213.5 634.5,-1213.5 634.5,-1190 396.5,-1190"/>
<text text-anchor="start" x="397.88" y="-1199.05" font-family="Helvetica,sans-Serif" font-weight="bold" font-size="11.00">l1_submissions</text>
<text text-anchor="start" x="592.75" y="-1198.05" font-family="Helvetica,sans-Serif" font-size="11.00">[table]</text>
<polygon fill="none" stroke="black" points="396.5,-1168 396.5,-1190 520.5,-1190 520.5,-1168 396.5,-1168"/>
<image xlink:href="/tmp/tmp.8yJneai2e8/images/primaryKeys.png" width="11px" height="12px" preserveAspectRatio="xMinYMin meet" x="401.5" y="-1185"/>
<text text-anchor="start" x="416.5" y="-1174.55" font-family="Helvetica,sans-Serif" font-size="11.00">id</text>
<polygon fill="none" stroke="black" points="520.5,-1168 520.5,-1190 634.5,-1190 634.5,-1168 520.5,-1168"/>
<text text-anchor="start" x="523.5" y="-1175.3" font-family="Helvetica,sans-Serif" font-size="11.00">serial[10]</text>
<polygon fill="none" stroke="black" points="396.5,-1146 396.5,-1168 520.5,-1168 520.5,-1146 396.5,-1146"/>
<text text-anchor="start" x="416.5" y="-1152.55" font-family="Helvetica,sans-Serif" font-size="11.00">fuel_block_hash</text>
<polygon fill="none" stroke="black" points="520.5,-1146 520.5,-1168 634.5,-1168 634.5,-1146 520.5,-1146"/>
<text text-anchor="start" x="523.5" y="-1153.3" font-family="Helvetica,sans-Serif" font-size="11.00">bytea[2147483647]</text>
<polygon fill="#ffffff" stroke="none" points="396.5,-1124 396.5,-1146 520.5,-1146 520.5,-1124 396.5,-1124"/>
<polygon fill="none" stroke="black" points="396.5,-1124 396.5,-1146 520.5,-1146 520.5,-1124 396.5,-1124"/>
<text text-anchor="start" x="416.5" y="-1130.55" font-family="Helvetica,sans-Serif" font-size="11.00">fuel_block_height</text>
<polygon fill="none" stroke="black" points="520.5,-1124 520.5,-1146 634.5,-1146 634.5,-1124 520.5,-1124"/>
<text text-anchor="start" x="523.5" y="-1131.3" font-family="Helvetica,sans-Serif" font-size="11.00">int8[19]</text>
<polygon fill="#ffffff" stroke="none" points="396.5,-1104.5 396.5,-1124 464.5,-1124 464.5,-1104.5 396.5,-1104.5"/>
<polygon fill="none" stroke="black" points="396.5,-1104.5 396.5,-1124 464.5,-1124 464.5,-1104.5 396.5,-1104.5"/>
<text text-anchor="start" x="399.5" y="-1110.55" font-family="Helvetica,sans-Serif" font-size="11.00">&lt; 0</text>
<polygon fill="#ffffff" stroke="none" points="464.5,-1104.5 464.5,-1124 520.5,-1124 520.5,-1104.5 464.5,-1104.5"/>
<polygon fill="none" stroke="black" points="464.5,-1104.5 464.5,-1124 520.5,-1124 520.5,-1104.5 464.5,-1104.5"/>
<text text-anchor="start" x="510" y="-1110.55" font-family="Helvetica,sans-Serif" font-size="11.00"> &#160;</text>
<polygon fill="#ffffff" stroke="none" points="520.5,-1104.5 520.5,-1124 634.5,-1124 634.5,-1104.5 520.5,-1104.5"/>
<polygon fill="none" stroke="black" points="520.5,-1104.5 520.5,-1124 634.5,-1124 634.5,-1104.5 520.5,-1104.5"/>
<text text-anchor="start" x="612" y="-1110.55" font-family="Helvetica,sans-Serif" font-size="11.00">0 &gt;</text>
<polygon fill="none" stroke="black" stroke-width="2" points="395.5,-1103.5 395.5,-1214.5 635.5,-1214.5 635.5,-1103.5 395.5,-1103.5"/>
</a>
</g>
</g>
</g>
</svg>
